<svg width="347" height="438" viewBox="0 0 347 438" fill="none" xmlns="http://www.w3.org/2000/svg">
<g opacity="0.3" filter="url(#filter0_d_584_6222)">
<path d="M46.2482 55.3134C32.1241 55.3134 32.1241 232.747 18 232.747V342.713H328.73V212.202C314.606 212.202 314.606 30.2744 300.482 30.2744C286.358 30.2744 286.358 32.2981 272.234 32.2981C258.11 32.2981 258.11 219.851 243.986 219.851C229.862 219.851 229.862 251.818 215.738 251.818C201.613 251.818 201.613 30 187.489 30C173.365 30 173.365 202.563 159.241 202.563C145.117 202.563 145.117 95.7188 130.993 95.7188C116.869 95.7188 116.869 146.414 102.745 146.414C88.6205 146.414 88.6205 70.1653 74.4964 70.1653C60.3723 70.1653 60.3723 55.3134 46.2482 55.3134Z" fill="url(#paint0_linear_584_6222)"/>
<g filter="url(#filter1_ddd_584_6222)">
<path d="M18 232.747C32.1241 232.747 32.1241 55.3134 46.2482 55.3134C60.3723 55.3134 60.3723 70.1653 74.4964 70.1653C88.6205 70.1653 88.6205 146.414 102.745 146.414C116.869 146.414 116.869 95.7188 130.993 95.7188C145.117 95.7188 145.117 202.563 159.241 202.563C173.365 202.563 173.365 30 187.489 30C201.613 30 201.613 251.818 215.738 251.818C229.862 251.818 229.862 219.851 243.986 219.851C258.11 219.851 258.11 32.2981 272.234 32.2981C286.358 32.2981 286.358 30.2744 300.482 30.2744C314.606 30.2744 314.606 212.202 328.73 212.202M328.73 212.202V212.202Z" stroke="#FF928A"/>
</g>
<rect x="18.3096" y="233.057" width="0.650449" height="0.619134" stroke="#FF928A" stroke-width="0.619134"/>
<circle cx="18" cy="232.747" r="3.5" fill="white" stroke="#FF928A"/>
<rect x="46.5596" y="55.623" width="0.650449" height="0.619134" stroke="#FF928A" stroke-width="0.619134"/>
<circle cx="46.25" cy="55.3135" r="3.5" fill="white" stroke="#FF928A"/>
<rect x="74.8057" y="70.4746" width="0.650449" height="0.619134" stroke="#FF928A" stroke-width="0.619134"/>
<circle cx="74.4961" cy="70.165" r="3.5" fill="white" stroke="#FF928A"/>
<rect x="103.056" y="146.724" width="0.650449" height="0.619134" stroke="#FF928A" stroke-width="0.619134"/>
<circle cx="102.746" cy="146.414" r="3.5" fill="white" stroke="#FF928A"/>
<rect x="131.302" y="96.0283" width="0.650449" height="0.619134" stroke="#FF928A" stroke-width="0.619134"/>
<circle cx="130.992" cy="95.7188" r="3.5" fill="white" stroke="#FF928A"/>
<rect x="159.552" y="202.873" width="0.650449" height="0.619134" stroke="#FF928A" stroke-width="0.619134"/>
<circle cx="159.242" cy="202.563" r="3.5" fill="white" stroke="#FF928A"/>
<rect x="187.798" y="30.3096" width="0.650449" height="0.619134" stroke="#FF928A" stroke-width="0.619134"/>
<circle cx="187.488" cy="30" r="3.5" fill="white" stroke="#FF928A"/>
<rect x="216.048" y="252.128" width="0.650449" height="0.619134" stroke="#FF928A" stroke-width="0.619134"/>
<circle cx="215.738" cy="251.818" r="3.5" fill="white" stroke="#FF928A"/>
<rect x="244.294" y="220.16" width="0.650449" height="0.619134" stroke="#FF928A" stroke-width="0.619134"/>
<circle cx="243.984" cy="219.851" r="3.5" fill="white" stroke="#FF928A"/>
<rect x="272.544" y="32.6074" width="0.650449" height="0.619134" stroke="#FF928A" stroke-width="0.619134"/>
<circle cx="272.234" cy="32.2979" r="3.5" fill="white" stroke="#FF928A"/>
<rect x="300.79" y="30.584" width="0.650449" height="0.619134" stroke="#FF928A" stroke-width="0.619134"/>
<circle cx="300.48" cy="30.2744" r="3.5" fill="white" stroke="#FF928A"/>
<rect x="329.04" y="212.511" width="0.650449" height="0.619134" stroke="#FF928A" stroke-width="0.619134"/>
<circle cx="328.73" cy="212.202" r="3.5" fill="white" stroke="#FF928A"/>
</g>
<g opacity="0.3">
<path d="M47.7273 198.877C33.8636 198.877 33.8636 148.237 20 148.237V372H325V197.058C311.136 197.058 311.136 82.089 297.273 82.089C283.409 82.089 283.409 187.555 269.545 187.555C255.682 187.555 255.682 223.339 241.818 223.339C227.955 223.339 227.955 136.434 214.091 136.434C200.227 136.434 200.227 167.518 186.364 167.518C172.5 167.518 172.5 265.676 158.636 265.676C144.773 265.676 144.773 115.609 130.909 115.609C117.045 115.609 117.045 182.546 103.182 182.546C89.3182 182.546 89.3182 52 75.4545 52C61.5909 52 61.5909 198.877 47.7273 198.877Z" fill="url(#paint1_linear_584_6222)"/>
<g filter="url(#filter2_ddd_584_6222)">
<path d="M20 148.382C33.8636 148.382 33.8636 199.099 47.7273 199.099C61.5909 199.099 61.5909 52 75.4545 52C89.3182 52 89.3182 182.743 103.182 182.743C117.045 182.743 117.045 115.705 130.909 115.705C144.773 115.705 144.773 266 158.636 266C172.5 266 172.5 167.693 186.364 167.693C200.227 167.693 200.227 136.562 214.091 136.562C227.955 136.562 227.955 223.599 241.818 223.599C255.682 223.599 255.682 187.76 269.545 187.76C283.409 187.76 283.409 82.1346 297.273 82.1346C311.136 82.1346 311.136 197.278 325 197.278M325 197.278V197.278Z" stroke="#A296FF"/>
</g>
<circle cx="20.125" cy="148.211" r="3.5" fill="white" stroke="#A296FF"/>
<circle cx="47.8203" cy="198.838" r="3.5" fill="white" stroke="#A296FF"/>
<circle cx="75.5117" cy="52" r="3.5" fill="white" stroke="#A296FF"/>
<circle cx="103.207" cy="182.512" r="3.5" fill="white" stroke="#A296FF"/>
<circle cx="130.898" cy="115.592" r="3.5" fill="white" stroke="#A296FF"/>
<circle cx="158.594" cy="265.62" r="3.5" fill="white" stroke="#A296FF"/>
<circle cx="186.285" cy="167.488" r="3.5" fill="white" stroke="#A296FF"/>
<circle cx="213.98" cy="136.412" r="3.5" fill="white" stroke="#A296FF"/>
<circle cx="241.676" cy="223.294" r="3.5" fill="white" stroke="#A296FF"/>
<circle cx="269.367" cy="187.52" r="3.5" fill="white" stroke="#A296FF"/>
<circle cx="297.062" cy="82.0811" r="3.5" fill="white" stroke="#A296FF"/>
<circle cx="324.754" cy="197.021" r="3.5" fill="white" stroke="#A296FF"/>
</g>
<path d="M45.9815 236.5C32.5001 236.5 31.4814 86.3518 18 86.3518V341.407H314.591V191.447C301.11 191.447 301.11 84.774 287.628 84.774C274.147 84.774 274.147 189.046 260.665 189.046C247.184 189.046 247.184 133.96 233.703 133.96C220.221 133.96 220.221 217.892 206.74 217.892C193.258 217.892 193.258 10 179.777 10C166.296 10 166.296 175.497 152.814 175.497C139.333 175.497 139.333 233.807 125.851 233.807C112.37 233.807 112.37 123.773 98.8885 123.773C85.407 123.773 85.407 173.68 71.9256 173.68C58.4442 173.68 59.4629 236.5 45.9815 236.5Z" fill="url(#paint2_linear_584_6222)"/>
<g filter="url(#filter3_ddd_584_6222)">
<path d="M18 86.3518C31.4814 86.3518 32.5001 236.5 45.9815 236.5C59.4629 236.5 58.4442 173.68 71.9256 173.68C85.407 173.68 85.407 123.773 98.8885 123.773C112.37 123.773 112.37 233.807 125.851 233.807C139.333 233.807 139.333 175.497 152.814 175.497C166.295 175.497 166.295 10 179.777 10C193.258 10 193.258 217.892 206.74 217.892C220.221 217.892 220.221 133.96 233.703 133.96C247.184 133.96 247.184 189.046 260.665 189.046C274.147 189.046 274.147 84.774 287.628 84.774C301.11 84.774 301.11 191.447 314.591 191.447" stroke="#016FD0"/>
</g>
<circle cx="18" cy="86.3516" r="3.5" fill="white" stroke="#3CC3DF"/>
<circle cx="44.9805" cy="235.009" r="3.5" fill="white" stroke="#3CC3DF"/>
<circle cx="71.9609" cy="173.68" r="3.5" fill="white" stroke="#3CC3DF"/>
<circle cx="98.9414" cy="123.773" r="3.5" fill="white" stroke="#3CC3DF"/>
<circle cx="125.922" cy="233.808" r="3.5" fill="white" stroke="#3CC3DF"/>
<circle cx="152.902" cy="175.498" r="3.5" fill="white" stroke="#3CC3DF"/>
<circle cx="179.883" cy="10" r="3.5" fill="white" stroke="#3CC3DF"/>
<circle cx="206.863" cy="217.893" r="3.5" fill="white" stroke="#3CC3DF"/>
<circle cx="233.844" cy="133.96" r="3.5" fill="white" stroke="#3CC3DF"/>
<circle cx="260.824" cy="189.046" r="3.5" fill="white" stroke="#3CC3DF"/>
<circle cx="287.809" cy="84.7739" r="3.5" fill="white" stroke="#3CC3DF"/>
<circle cx="314.789" cy="191.447" r="3.5" fill="white" stroke="#3CC3DF"/>
<defs>
<filter id="filter0_d_584_6222" x="10" y="26" width="326.73" height="398" filterUnits="userSpaceOnUse" color-interpolation-filters="sRGB">
<feFlood flood-opacity="0" result="BackgroundImageFix"/>
<feColorMatrix in="SourceAlpha" type="matrix" values="0 0 0 0 0 0 0 0 0 0 0 0 0 0 0 0 0 0 127 0" result="hardAlpha"/>
<feOffset dy="4"/>
<feGaussianBlur stdDeviation="2"/>
<feComposite in2="hardAlpha" operator="out"/>
<feColorMatrix type="matrix" values="0 0 0 0 0 0 0 0 0 0 0 0 0 0 0 0 0 0 0.25 0"/>
<feBlend mode="normal" in2="BackgroundImageFix" result="effect1_dropShadow_584_6222"/>
<feBlend mode="normal" in="SourceGraphic" in2="effect1_dropShadow_584_6222" result="shape"/>
</filter>
<filter id="filter1_ddd_584_6222" x="0" y="20.5" width="346.73" height="258.818" filterUnits="userSpaceOnUse" color-interpolation-filters="sRGB">
<feFlood flood-opacity="0" result="BackgroundImageFix"/>
<feColorMatrix in="SourceAlpha" type="matrix" values="0 0 0 0 0 0 0 0 0 0 0 0 0 0 0 0 0 0 127 0" result="hardAlpha"/>
<feOffset dy="3"/>
<feGaussianBlur stdDeviation="1.5"/>
<feColorMatrix type="matrix" values="0 0 0 0 1 0 0 0 0 0.572549 0 0 0 0 0.541176 0 0 0 0.4 0"/>
<feBlend mode="normal" in2="BackgroundImageFix" result="effect1_dropShadow_584_6222"/>
<feColorMatrix in="SourceAlpha" type="matrix" values="0 0 0 0 0 0 0 0 0 0 0 0 0 0 0 0 0 0 127 0" result="hardAlpha"/>
<feOffset dy="6"/>
<feGaussianBlur stdDeviation="4.5"/>
<feColorMatrix type="matrix" values="0 0 0 0 1 0 0 0 0 0.572549 0 0 0 0 0.541176 0 0 0 0.4 0"/>
<feBlend mode="normal" in2="effect1_dropShadow_584_6222" result="effect2_dropShadow_584_6222"/>
<feColorMatrix in="SourceAlpha" type="matrix" values="0 0 0 0 0 0 0 0 0 0 0 0 0 0 0 0 0 0 127 0" result="hardAlpha"/>
<feOffset dy="9"/>
<feGaussianBlur stdDeviation="9"/>
<feColorMatrix type="matrix" values="0 0 0 0 1 0 0 0 0 0.572549 0 0 0 0 0.541176 0 0 0 0.4 0"/>
<feBlend mode="normal" in2="effect2_dropShadow_584_6222" result="effect3_dropShadow_584_6222"/>
<feBlend mode="normal" in="SourceGraphic" in2="effect3_dropShadow_584_6222" result="shape"/>
</filter>
<filter id="filter2_ddd_584_6222" x="2" y="42.5" width="341" height="251" filterUnits="userSpaceOnUse" color-interpolation-filters="sRGB">
<feFlood flood-opacity="0" result="BackgroundImageFix"/>
<feColorMatrix in="SourceAlpha" type="matrix" values="0 0 0 0 0 0 0 0 0 0 0 0 0 0 0 0 0 0 127 0" result="hardAlpha"/>
<feOffset dy="3"/>
<feGaussianBlur stdDeviation="1.5"/>
<feColorMatrix type="matrix" values="0 0 0 0 0.537451 0 0 0 0 0.474902 0 0 0 0 1 0 0 0 0.4 0"/>
<feBlend mode="normal" in2="BackgroundImageFix" result="effect1_dropShadow_584_6222"/>
<feColorMatrix in="SourceAlpha" type="matrix" values="0 0 0 0 0 0 0 0 0 0 0 0 0 0 0 0 0 0 127 0" result="hardAlpha"/>
<feOffset dy="6"/>
<feGaussianBlur stdDeviation="4.5"/>
<feColorMatrix type="matrix" values="0 0 0 0 0.537451 0 0 0 0 0.474902 0 0 0 0 1 0 0 0 0.4 0"/>
<feBlend mode="normal" in2="effect1_dropShadow_584_6222" result="effect2_dropShadow_584_6222"/>
<feColorMatrix in="SourceAlpha" type="matrix" values="0 0 0 0 0 0 0 0 0 0 0 0 0 0 0 0 0 0 127 0" result="hardAlpha"/>
<feOffset dy="9"/>
<feGaussianBlur stdDeviation="9"/>
<feColorMatrix type="matrix" values="0 0 0 0 0.537451 0 0 0 0 0.474902 0 0 0 0 1 0 0 0 0.4 0"/>
<feBlend mode="normal" in2="effect2_dropShadow_584_6222" result="effect3_dropShadow_584_6222"/>
<feBlend mode="normal" in="SourceGraphic" in2="effect3_dropShadow_584_6222" result="shape"/>
</filter>
<filter id="filter3_ddd_584_6222" x="0" y="0.5" width="332.59" height="263.5" filterUnits="userSpaceOnUse" color-interpolation-filters="sRGB">
<feFlood flood-opacity="0" result="BackgroundImageFix"/>
<feColorMatrix in="SourceAlpha" type="matrix" values="0 0 0 0 0 0 0 0 0 0 0 0 0 0 0 0 0 0 127 0" result="hardAlpha"/>
<feOffset dy="3"/>
<feGaussianBlur stdDeviation="1.5"/>
<feColorMatrix type="matrix" values="0 0 0 0 0.233436 0 0 0 0 0.766174 0 0 0 0 0.873954 0 0 0 0.4 0"/>
<feBlend mode="normal" in2="BackgroundImageFix" result="effect1_dropShadow_584_6222"/>
<feColorMatrix in="SourceAlpha" type="matrix" values="0 0 0 0 0 0 0 0 0 0 0 0 0 0 0 0 0 0 127 0" result="hardAlpha"/>
<feOffset dy="6"/>
<feGaussianBlur stdDeviation="4.5"/>
<feColorMatrix type="matrix" values="0 0 0 0 0.233436 0 0 0 0 0.766174 0 0 0 0 0.873954 0 0 0 0.4 0"/>
<feBlend mode="normal" in2="effect1_dropShadow_584_6222" result="effect2_dropShadow_584_6222"/>
<feColorMatrix in="SourceAlpha" type="matrix" values="0 0 0 0 0 0 0 0 0 0 0 0 0 0 0 0 0 0 127 0" result="hardAlpha"/>
<feOffset dy="9"/>
<feGaussianBlur stdDeviation="9"/>
<feColorMatrix type="matrix" values="0 0 0 0 0.233436 0 0 0 0 0.766174 0 0 0 0 0.873954 0 0 0 0.4 0"/>
<feBlend mode="normal" in2="effect2_dropShadow_584_6222" result="effect3_dropShadow_584_6222"/>
<feBlend mode="normal" in="SourceGraphic" in2="effect3_dropShadow_584_6222" result="shape"/>
</filter>
<linearGradient id="paint0_linear_584_6222" x1="173.365" y1="30" x2="173.365" y2="342.713" gradientUnits="userSpaceOnUse">
<stop stop-color="#FF928A" stop-opacity="0.3"/>
<stop offset="1" stop-color="#262723" stop-opacity="0.1"/>
</linearGradient>
<linearGradient id="paint1_linear_584_6222" x1="172.5" y1="52" x2="172.199" y2="288.562" gradientUnits="userSpaceOnUse">
<stop stop-color="#8979FF" stop-opacity="0.3"/>
<stop offset="1" stop-color="#262723" stop-opacity="0.1"/>
</linearGradient>
<linearGradient id="paint2_linear_584_6222" x1="166.296" y1="10" x2="166.296" y2="341.407" gradientUnits="userSpaceOnUse">
<stop stop-color="#3CC3DF" stop-opacity="0.3"/>
<stop offset="1" stop-color="#262723" stop-opacity="0.1"/>
</linearGradient>
</defs>
</svg>
