<svg width="162" height="19" viewBox="0 0 162 19" fill="none" xmlns="http://www.w3.org/2000/svg">
<path d="M5 0.5H14C16.4853 0.5 18.5 2.51472 18.5 5V14C18.5 16.4853 16.4853 18.5 14 18.5H5C2.51472 18.5 0.5 16.4853 0.5 14V5C0.5 2.51472 2.51472 0.5 5 0.5Z" fill="#3CC3DF" fill-opacity="0.5" stroke="#3CC3DF"/>
<path fill-rule="evenodd" clip-rule="evenodd" d="M15.6264 5.27576C15.7597 5.40934 15.8347 5.59044 15.8347 5.77926C15.8347 5.96807 15.7597 6.14916 15.6264 6.28276L8.73886 13.1703C8.60526 13.3036 8.42417 13.3786 8.23536 13.3786C8.04654 13.3786 7.86545 13.3036 7.73186 13.1703L4.64436 10.0828C4.5185 9.94768 4.44999 9.76905 4.45324 9.58445C4.45649 9.39987 4.53127 9.22376 4.66182 9.09321C4.79236 8.96267 4.96848 8.88789 5.15306 8.88463C5.33765 8.88138 5.51629 8.9499 5.65136 9.07576L8.23536 11.6598L14.6194 5.27576C14.7529 5.14233 14.934 5.06738 15.1229 5.06738C15.3116 5.06738 15.4928 5.14233 15.6264 5.27576Z" fill="#3CC3DF"/>
<path opacity="0.7" d="M76.332 0.5H85.332C87.8173 0.5 89.832 2.51472 89.832 5V14C89.832 16.4853 87.8173 18.5 85.332 18.5H76.332C73.8468 18.5 71.832 16.4853 71.832 14V5C71.832 2.51472 73.8468 0.5 76.332 0.5Z" fill="#FBB499" fill-opacity="0.5" stroke="#FBB499"/>
<path opacity="0.7" d="M147.668 0.5H156.668C159.153 0.5 161.168 2.51472 161.168 5V14C161.168 16.4853 159.153 18.5 156.668 18.5H147.668C145.183 18.5 143.168 16.4853 143.168 14V5C143.168 2.51472 145.183 0.5 147.668 0.5Z" fill="#A296FF" fill-opacity="0.5" stroke="#A296FF"/>
</svg>
