<svg width="333" height="396" viewBox="0 0 333 396" fill="none" xmlns="http://www.w3.org/2000/svg">
<path d="M45.9815 236.5C32.5001 236.5 31.4814 86.3518 18 86.3518V341.407H314.591V191.447C301.11 191.447 301.11 84.774 287.628 84.774C274.147 84.774 274.147 189.046 260.665 189.046C247.184 189.046 247.184 133.96 233.703 133.96C220.221 133.96 220.221 217.892 206.74 217.892C193.258 217.892 193.258 10 179.777 10C166.296 10 166.296 175.497 152.814 175.497C139.333 175.497 139.333 233.807 125.851 233.807C112.37 233.807 112.37 123.773 98.8885 123.773C85.407 123.773 85.407 173.68 71.9256 173.68C58.4442 173.68 59.4629 236.5 45.9815 236.5Z" fill="url(#paint0_linear_362_6535)"/>
<g filter="url(#filter0_ddd_362_6535)">
<path d="M18 86.3518C31.4814 86.3518 32.5001 236.5 45.9815 236.5C59.4629 236.5 58.4442 173.68 71.9256 173.68C85.407 173.68 85.407 123.773 98.8885 123.773C112.37 123.773 112.37 233.807 125.851 233.807C139.333 233.807 139.333 175.497 152.814 175.497C166.295 175.497 166.295 10 179.777 10C193.258 10 193.258 217.892 206.74 217.892C220.221 217.892 220.221 133.96 233.703 133.96C247.184 133.96 247.184 189.046 260.665 189.046C274.147 189.046 274.147 84.774 287.628 84.774C301.11 84.774 301.11 191.447 314.591 191.447" stroke="#016FD0"/>
</g>
<circle cx="18" cy="86.3516" r="3.5" fill="white" stroke="#3CC3DF"/>
<circle cx="44.9805" cy="235.009" r="3.5" fill="white" stroke="#3CC3DF"/>
<circle cx="71.9609" cy="173.68" r="3.5" fill="white" stroke="#3CC3DF"/>
<circle cx="98.9414" cy="123.773" r="3.5" fill="white" stroke="#3CC3DF"/>
<circle cx="125.922" cy="233.808" r="3.5" fill="white" stroke="#3CC3DF"/>
<circle cx="152.902" cy="175.498" r="3.5" fill="white" stroke="#3CC3DF"/>
<circle cx="179.883" cy="10" r="3.5" fill="white" stroke="#3CC3DF"/>
<circle cx="206.863" cy="217.893" r="3.5" fill="white" stroke="#3CC3DF"/>
<circle cx="233.844" cy="133.96" r="3.5" fill="white" stroke="#3CC3DF"/>
<circle cx="260.824" cy="189.046" r="3.5" fill="white" stroke="#3CC3DF"/>
<circle cx="287.809" cy="84.7739" r="3.5" fill="white" stroke="#3CC3DF"/>
<circle cx="314.789" cy="191.447" r="3.5" fill="white" stroke="#3CC3DF"/>
<defs>
<filter id="filter0_ddd_362_6535" x="0" y="0.5" width="332.59" height="263.5" filterUnits="userSpaceOnUse" color-interpolation-filters="sRGB">
<feFlood flood-opacity="0" result="BackgroundImageFix"/>
<feColorMatrix in="SourceAlpha" type="matrix" values="0 0 0 0 0 0 0 0 0 0 0 0 0 0 0 0 0 0 127 0" result="hardAlpha"/>
<feOffset dy="3"/>
<feGaussianBlur stdDeviation="1.5"/>
<feColorMatrix type="matrix" values="0 0 0 0 0.233436 0 0 0 0 0.766174 0 0 0 0 0.873954 0 0 0 0.4 0"/>
<feBlend mode="normal" in2="BackgroundImageFix" result="effect1_dropShadow_362_6535"/>
<feColorMatrix in="SourceAlpha" type="matrix" values="0 0 0 0 0 0 0 0 0 0 0 0 0 0 0 0 0 0 127 0" result="hardAlpha"/>
<feOffset dy="6"/>
<feGaussianBlur stdDeviation="4.5"/>
<feColorMatrix type="matrix" values="0 0 0 0 0.233436 0 0 0 0 0.766174 0 0 0 0 0.873954 0 0 0 0.4 0"/>
<feBlend mode="normal" in2="effect1_dropShadow_362_6535" result="effect2_dropShadow_362_6535"/>
<feColorMatrix in="SourceAlpha" type="matrix" values="0 0 0 0 0 0 0 0 0 0 0 0 0 0 0 0 0 0 127 0" result="hardAlpha"/>
<feOffset dy="9"/>
<feGaussianBlur stdDeviation="9"/>
<feColorMatrix type="matrix" values="0 0 0 0 0.233436 0 0 0 0 0.766174 0 0 0 0 0.873954 0 0 0 0.4 0"/>
<feBlend mode="normal" in2="effect2_dropShadow_362_6535" result="effect3_dropShadow_362_6535"/>
<feBlend mode="normal" in="SourceGraphic" in2="effect3_dropShadow_362_6535" result="shape"/>
</filter>
<linearGradient id="paint0_linear_362_6535" x1="166.296" y1="10" x2="166.296" y2="341.407" gradientUnits="userSpaceOnUse">
<stop stop-color="#3CC3DF" stop-opacity="0.3"/>
<stop offset="1" stop-color="#262723" stop-opacity="0.1"/>
</linearGradient>
</defs>
</svg>
